<?xml version="1.0" encoding="UTF-8" standalone="no"?>
<svg
   width="1305"
   height="1153"
   version="1.1"
   id="svg248"
   sodipodi:docname="1_basic_logic_gates.svg"
   inkscape:version="1.2.2 (b0a8486541, 2022-12-01)"
   xmlns:inkscape="http://www.inkscape.org/namespaces/inkscape"
   xmlns:sodipodi="http://sodipodi.sourceforge.net/DTD/sodipodi-0.dtd"
   xmlns:xlink="http://www.w3.org/1999/xlink"
   xmlns="http://www.w3.org/2000/svg"
   xmlns:svg="http://www.w3.org/2000/svg"
   xmlns:lucid="lucid">
  <defs
     id="defs252" />
  <sodipodi:namedview
     id="namedview250"
     pagecolor="#ffffff"
     bordercolor="#111111"
     borderopacity="1"
     inkscape:showpageshadow="0"
     inkscape:pageopacity="0"
     inkscape:pagecheckerboard="true"
     inkscape:deskcolor="#d1d1d1"
     showgrid="false"
     inkscape:zoom="1.6374675"
     inkscape:cx="1097.7317"
     inkscape:cy="1104.1441"
     inkscape:window-width="1920"
     inkscape:window-height="1019"
     inkscape:window-x="0"
     inkscape:window-y="0"
     inkscape:window-maximized="1"
     inkscape:current-layer="svg248" />
  <rect
     style="fill:#ffffff;stroke:#000000;stroke-width:2.00202"
     id="rect2737"
     width="1303.1415"
     height="1151.207"
     x="1.3369817"
     y="1.3369817" />
  <g
     transform="translate(-258 -84)"
     lucid:page-tab-id="ZauHtw2Hl2KY"
     id="g246">
    <path
       d="M464.73 373.42h33a6 6 0 0 1 6 6V604a6 6 0 0 1-6 6H347.5a6 6 0 0 0-6 6v15.5"
       stroke="#000"
       stroke-opacity="0"
       stroke-width="2"
       fill="none"
       id="path2" />
    <path
       d="M341.5 646.76l-4.63-14.26h9.26z"
       stroke="#000"
       stroke-opacity="0"
       stroke-width="2"
       fill-opacity="0"
       id="path4" />
    <path
       d="M299 373.42h-33a6 6 0 0 1-6-6v-59.67a6 6 0 0 1 6-6h9.5a6 6 0 0 1 6 6v15.5"
       stroke="#000"
       stroke-opacity="0"
       stroke-width="2"
       fill="none"
       id="path6" />
    <path
       d="M281.5 338.5l-4.63-14.25h9.26z"
       stroke="#000"
       stroke-opacity="0"
       stroke-width="2"
       fill-opacity="0"
       id="path8" />
    <path
       d="M406.5 323.42l55 50-55 50-105-.56v-98.88zM406.5 900l55 50-55 50h-105v-99.44z"
       stroke="#000"
       stroke-width="3"
       fill="#fff"
       id="path10" />
    <path
       d="M761.5 293.42v160h48v-160zM953.5 293.42v160h48v-160z"
       fill="none"
       id="path12" />
    <path
       d="M828.7 333.42h-67.2m67.2 80h-67.2zm108-40h64.8zm-108-80v160h52.8c31.2 0 55.2-35.2 55.2-80 0-43.2-24-80-55.2-80h-52.8z"
       stroke="#000"
       stroke-width="3"
       fill="#fff"
       id="path14" />
    <path
       d="M761.5 485.42v160h48v-160zM953.5 485.42v160h48v-160z"
       fill="none"
       id="path16" />
    <path
       d="M831.1 525.42h-69.6m69.6 80h-69.6zm104.64-40h65.76zm-116.4-64l4.8 7.84s13.68 22.4 13.68 56.16-13.68 56.16-13.68 56.16l-4.8 7.84h41.28c5.76 0 18.24 0 32.64-7.68 14.16-7.84 30-23.52 42.48-54.08v-4.48c-24.72-61.12-63.84-61.76-75.12-61.76h-41.28z"
       stroke="#000"
       stroke-width="3"
       fill="#fff"
       id="path18" />
    <path
       d="M761.5 101.42v160h48v-160zM953.5 101.42v160h48v-160z"
       fill="none"
       id="path20" />
    <path
       d="M833.5 181.42h-72zm120 0h48zm-120-80l96 80-96 80zm120 80c0 6.4-4.8 12.8-12 12.8s-12-6.4-12-12.8 4.8-12.8 12-12.8 12 6.4 12 12.8"
       stroke="#000"
       stroke-width="3"
       fill="#fff"
       id="path22" />
    <path
       d="M761.5 677.42v160h48v-160zM953.5 677.42v160h48v-160z"
       fill="none"
       id="path24" />
    <path
       d="M828.7 717.42h-67.2m67.2 80h-67.2zm132-40h40.8zm-132-80v160h52.8c31.2 0 55.2-35.2 55.2-80 0-43.2-24-80-55.2-80h-52.8zm132 80c0 6.4-4.8 12.8-12 12.8s-12-6.4-12-12.8 4.8-12.8 12-12.8 12 6.4 12 12.8"
       stroke="#000"
       stroke-width="3"
       fill="#fff"
       id="path26" />
    <path
       d="M761.5 869.42v160h48v-160zM953.5 869.42v160h48v-160z"
       fill="none"
       id="path28" />
    <path
       d="M831.1 909.42h-69.6m69.6 80h-69.6zm129.6-40h40.8zm-141.36-64l4.8 7.84s13.68 22.4 13.68 56.16-13.68 56.16-13.68 56.16l-4.8 7.84h41.28c5.76 0 18.24 0 32.64-7.68 14.16-7.84 30-23.52 42.48-54.08v-4.48c-24.72-61.12-63.84-61.76-75.12-61.76h-41.28zm141.36 64c0 7.07-5.38 12.8-12 12.8s-12-5.73-12-12.8 5.38-12.8 12-12.8 12 5.73 12 12.8"
       stroke="#000"
       stroke-width="3"
       fill="#fff"
       id="path30" />
    <path
       d="M761.5 1061.42v160h48v-160zM953.5 1061.42v160h48v-160z"
       fill="none"
       id="path32" />
    <path
       d="M831.1 1101.42h-69.6m69.6 80h-69.6zm104.64-40h65.76zm-116.4-64l4.8 7.84s13.68 22.4 13.68 56.16-13.68 56.16-13.68 56.16l-4.8 7.84h41.28c5.76 0 18.24 0 32.64-7.68 14.16-7.84 30-23.52 42.48-54.08v-4.48c-24.72-61.12-63.84-61.76-75.12-61.76h-41.28z"
       stroke="#000"
       stroke-width="3"
       fill="#fff"
       id="path34" />
    <path
       d="M805.9 1205.42c13.13 0 22.8-28.66 22.8-64 0-35.35-9.67-64-21.6-64"
       stroke="#000"
       stroke-width="3"
       fill="none"
       id="path36" />
    <path
       d="M461.04 373.42H575.5a6 6 0 0 0 6-6v-180a6 6 0 0 1 6-6h173"
       stroke="#1071e5"
       stroke-width="2"
       fill="none"
       id="path38" />
    <path
       stroke="#1071e5"
       stroke-width=".05"
       fill="#1071e5"
       id="path40" />
    <path
       d="M761.5 182.42h-1.03v-2h1.03z"
       stroke="#1071e5"
       stroke-width=".05"
       fill="#1071e5"
       id="path42" />
    <path
       d="M1002.5 181.42h295.77"
       stroke="#000"
       stroke-width="2"
       fill="none"
       id="path44" />
    <path
       d="M1002.53 182.42h-1.03v-2h1.03zM1299.27 181.42l1.1 1h-2.13v-2h2.13z"
       stroke="#000"
       stroke-width=".05"
       id="path46" />
    <path
       d="M1002.5 373.42h295.77"
       stroke="#000"
       stroke-width="2"
       fill="none"
       id="path48" />
    <path
       d="M1002.53 374.42h-1.03v-2h1.03zM1299.27 373.42l1.1 1h-2.13v-2h2.13z"
       stroke="#000"
       stroke-width=".05"
       id="path50" />
    <path
       d="M1002.5 565.42h295.77"
       stroke="#000"
       stroke-width="2"
       fill="none"
       id="path52" />
    <path
       d="M1002.53 566.42h-1.03v-2h1.03zM1299.27 565.42l1.1 1h-2.13v-2h2.13z"
       stroke="#000"
       stroke-width=".05"
       id="path54" />
    <path
       d="M1002.5 757.42h294.77"
       stroke="#000"
       stroke-width="2"
       fill="none"
       id="path56" />
    <path
       d="M1002.53 758.42h-1.03v-2h1.03zM1298.27 757.42l1.1 1h-2.13v-2h2.13z"
       stroke="#000"
       stroke-width=".05"
       id="path58" />
    <path
       d="M1002.5 949.42h295.1"
       stroke="#000"
       stroke-width="2"
       fill="none"
       id="path60" />
    <path
       d="M1002.53 950.42h-1.03v-2h1.03zM1298.27 949.13l1.42 1.3h-2.13v-2h1.48z"
       stroke="#000"
       stroke-width=".05"
       id="path62" />
    <path
       d="M1356.5 131.42l-55 50 55 50h105v-99.44zM1356.5 323.42l-55 50 55 50 105-1.6V324zM1356.5 515.42l-55 50 55 50h105v-99.44z"
       stroke="#000"
       stroke-width="3"
       fill="#fff"
       id="path64" />
    <path
       d="M1002.5 1141.42h295.77"
       stroke="#000"
       stroke-width="2"
       fill="none"
       id="path66" />
    <path
       d="M1002.53 1142.42h-1.03v-2h1.03zM1299.27 1141.42l1.1 1h-2.13v-2h2.13z"
       stroke="#000"
       stroke-width=".05"
       id="path68" />
    <path
       d="M1355.5 707.42l-55 50 55 50h106l-1-99.44zM1355.5 899.13l-55 50 55 50 105 .58v-100zM1356.5 1091.42l-55 50 55 50 105-1.42v-98.02z"
       stroke="#000"
       stroke-width="3"
       fill="#fff"
       id="path70" />
    <path
       d="M461.04 373.42H575.5a6 6 0 0 0 6-6v-28a6 6 0 0 1 6-6h173"
       stroke="#1071e5"
       stroke-width="2"
       fill="none"
       id="path72" />
    <path
       stroke="#1071e5"
       stroke-width=".05"
       fill="#1071e5"
       id="path74" />
    <path
       d="M761.5 334.42h-1.03v-2h1.03z"
       stroke="#1071e5"
       stroke-width=".05"
       fill="#1071e5"
       id="path76" />
    <path
       d="M461.04 373.42H575.5a6 6 0 0 1 6 6v140a6 6 0 0 0 6 6h173"
       stroke="#1071e5"
       stroke-width="2"
       fill="none"
       id="path78" />
    <path
       stroke="#1071e5"
       stroke-width=".05"
       fill="#1071e5"
       id="path80" />
    <path
       d="M761.5 526.42h-1.03v-2h1.03z"
       stroke="#1071e5"
       stroke-width=".05"
       fill="#1071e5"
       id="path82" />
    <path
       d="M461.04 373.42H575.5a6 6 0 0 1 6 6v332a6 6 0 0 0 6 6h173"
       stroke="#1071e5"
       stroke-width="2"
       fill="none"
       id="path84" />
    <path
       stroke="#1071e5"
       stroke-width=".05"
       fill="#1071e5"
       id="path86" />
    <path
       d="M761.5 718.42h-1.03v-2h1.03z"
       stroke="#1071e5"
       stroke-width=".05"
       fill="#1071e5"
       id="path88" />
    <path
       d="M461.04 373.42H575.5a6 6 0 0 1 6 6v524a6 6 0 0 0 6 6h173"
       stroke="#1071e5"
       stroke-width="2"
       fill="none"
       id="path90" />
    <path
       stroke="#1071e5"
       stroke-width=".05"
       fill="#1071e5"
       id="path92" />
    <path
       d="M761.5 910.42h-1.03v-2h1.03z"
       stroke="#1071e5"
       stroke-width=".05"
       fill="#1071e5"
       id="path94" />
    <path
       d="M461.04 373.42H575.5a6 6 0 0 1 6 6v716a6 6 0 0 0 6 6h173"
       stroke="#1071e5"
       stroke-width="2"
       fill="none"
       id="path96" />
    <path
       stroke="#1071e5"
       stroke-width=".05"
       fill="#1071e5"
       id="path98" />
    <path
       d="M761.5 1102.42h-1.03v-2h1.03z"
       stroke="#1071e5"
       stroke-width=".05"
       fill="#1071e5"
       id="path100" />
    <path
       d="M461.04 950H665.5a6 6 0 0 0 6-6V419.42a6 6 0 0 1 6-6h83"
       stroke="#e81313"
       stroke-width="2"
       fill="none"
       id="path102" />
    <path
       stroke="#e81313"
       stroke-width=".05"
       fill="#e81313"
       id="path104" />
    <path
       d="M761.5 414.42h-1.03v-2h1.03z"
       stroke="#e81313"
       stroke-width=".05"
       fill="#e81313"
       id="path106" />
    <path
       d="M461.04 950H665.5a6 6 0 0 0 6-6V611.42a6 6 0 0 1 6-6h83"
       stroke="#e81313"
       stroke-width="2"
       fill="none"
       id="path108" />
    <path
       stroke="#e81313"
       stroke-width=".05"
       fill="#e81313"
       id="path110" />
    <path
       d="M761.5 606.42h-1.03v-2h1.03z"
       stroke="#e81313"
       stroke-width=".05"
       fill="#e81313"
       id="path112" />
    <path
       d="M461.04 950H665.5a6 6 0 0 0 6-6V803.42a6 6 0 0 1 6-6h83"
       stroke="#e81313"
       stroke-width="2"
       fill="none"
       id="path114" />
    <path
       stroke="#e81313"
       stroke-width=".05"
       fill="#e81313"
       id="path116" />
    <path
       d="M761.5 798.42h-1.03v-2h1.03z"
       stroke="#e81313"
       stroke-width=".05"
       fill="#e81313"
       id="path118" />
    <path
       d="M461.04 950H665.5a6 6 0 0 1 6 6v27.42a6 6 0 0 0 6 6h83"
       stroke="#e81313"
       stroke-width="2"
       fill="none"
       id="path120" />
    <path
       stroke="#e81313"
       stroke-width=".05"
       fill="#e81313"
       id="path122" />
    <path
       d="M761.5 990.42h-1.03v-2h1.03z"
       stroke="#e81313"
       stroke-width=".05"
       fill="#e81313"
       id="path124" />
    <path
       d="M461.04 950H665.5a6 6 0 0 1 6 6v219.42a6 6 0 0 0 6 6h83"
       stroke="#e81313"
       stroke-width="2"
       fill="none"
       id="path126" />
    <path
       stroke="#e81313"
       stroke-width=".05"
       fill="#e81313"
       id="path128" />
    <path
       d="M761.5 1182.42h-1.03v-2h1.03z"
       stroke="#e81313"
       stroke-width=".05"
       fill="#e81313"
       id="path130" />
    <path
       d="M261.5 347.75a6 6 0 0 1 6-6h28a6 6 0 0 1 6 6v51.33a6 6 0 0 1-6 6h-28a6 6 0 0 1-6-6z"
       stroke="#000"
       stroke-opacity="0"
       stroke-width="3"
       fill="#fff"
       fill-opacity="0"
       id="path132" />
    <use
       xlink:href="#a"
       transform="matrix(1,0,0,1,266.5,346.75065616797895) translate(8.827160493827162 31.27777777777778)"
       id="use134" />
    <path
       d="M261.5 923.75a6 6 0 0 1 6-6h28a6 6 0 0 1 6 6v51.33a6 6 0 0 1-6 6h-28a6 6 0 0 1-6-6z"
       stroke="#000"
       stroke-opacity="0"
       stroke-width="3"
       fill="#fff"
       fill-opacity="0"
       id="path136" />
    <use
       xlink:href="#b"
       transform="matrix(1,0,0,1,266.5,922.7506561679788) translate(8.827160493827162 31.27777777777778)"
       id="use138" />
    <path
       d="M1461.5 155.75a6 6 0 0 1 6-6h68a6 6 0 0 1 6 6v51.33a6 6 0 0 1-6 6h-68a6 6 0 0 1-6-6z"
       stroke="#000"
       stroke-opacity="0"
       stroke-width="3"
       fill="#fff"
       fill-opacity="0"
       id="path140" />
    <use
       xlink:href="#c"
       transform="matrix(1,0,0,1,1466.5,154.75065616797892) translate(7.839506172839506 31.27777777777778)"
       id="use142" />
    <path
       d="M1461.5 347.75a6 6 0 0 1 6-6h68a6 6 0 0 1 6 6v51.33a6 6 0 0 1-6 6h-68a6 6 0 0 1-6-6z"
       stroke="#000"
       stroke-opacity="0"
       stroke-width="3"
       fill="#fff"
       fill-opacity="0"
       id="path144" />
    <use
       xlink:href="#d"
       transform="matrix(1,0,0,1,1466.5,346.75065616797895) translate(4.753086419753089 31.27777777777778)"
       id="use146" />
    <path
       d="M1460.5 539.75a6 6 0 0 1 6-6h69a6 6 0 0 1 6 6v51.33a6 6 0 0 1-6 6h-69a6 6 0 0 1-6-6z"
       stroke="#000"
       stroke-opacity="0"
       stroke-width="3"
       fill="#fff"
       fill-opacity="0"
       id="path148" />
    <use
       xlink:href="#e"
       transform="matrix(1,0,0,1,1465.5,538.7506561679788) translate(13.925925925925927 31.27777777777778)"
       id="use150" />
    <path
       d="M1460.5 731.6a6 6 0 0 1 6-6h89a6 6 0 0 1 6 6v51.34a6 6 0 0 1-6 6h-89a6 6 0 0 1-6-6z"
       stroke="#000"
       stroke-opacity="0"
       stroke-width="3"
       fill="#fff"
       fill-opacity="0"
       id="path152" />
    <use
       xlink:href="#f"
       transform="matrix(1,0,0,1,1465.5,730.6049868766404) translate(9.080246913580247 31.27777777777778)"
       id="use154" />
    <path
       d="M1461.5 924.33a6 6 0 0 1 6-6h68a6 6 0 0 1 6 6v51.34a6 6 0 0 1-6 6h-68a6 6 0 0 1-6-6z"
       stroke="#000"
       stroke-opacity="0"
       stroke-width="3"
       fill="#fff"
       fill-opacity="0"
       id="path156" />
    <use
       xlink:href="#g"
       transform="matrix(1,0,0,1,1466.5,923.3333333333334) translate(7.253086419753089 31.27777777777778)"
       id="use158" />
    <path
       d="M1460.5 1115.75a6 6 0 0 1 6-6h69a6 6 0 0 1 6 6v51.33a6 6 0 0 1-6 6h-69a6 6 0 0 1-6-6z"
       stroke="#000"
       stroke-opacity="0"
       stroke-width="3"
       fill="#fff"
       fill-opacity="0"
       id="path160" />
    <use
       xlink:href="#h"
       transform="matrix(1,0,0,1,1465.5,1114.7506561679788) translate(8.370370370370374 31.27777777777778)"
       id="use162" />
    <path
       d="M1460.5 565.42"
       stroke="#000"
       stroke-opacity="0"
       stroke-width="2"
       fill="none"
       id="path164" />
    <defs
       id="defs244">
      <path
         fill="#333"
         d="M141-36C126-15 110 5 73 4 37 3 15-17 15-53c-1-64 63-63 125-63 3-35-9-54-41-54-24 1-41 7-42 31l-33-3c5-37 33-52 76-52 45 0 72 20 72 64v82c-1 20 7 32 28 27v20c-31 9-61-2-59-35zM48-53c0 20 12 33 32 33 41-3 63-29 60-74-43 2-92-5-92 41"
         id="i" />
      <use
         transform="matrix(0.06172839506172839,0,0,0.06172839506172839,0,0)"
         xlink:href="#i"
         id="a" />
      <path
         fill="#333"
         d="M115-194c53 0 69 39 70 98 0 66-23 100-70 100C84 3 66-7 56-30L54 0H23l1-261h32v101c10-23 28-34 59-34zm-8 174c40 0 45-34 45-75 0-40-5-75-45-74-42 0-51 32-51 76 0 43 10 73 51 73"
         id="j" />
      <use
         transform="matrix(0.06172839506172839,0,0,0.06172839506172839,0,0)"
         xlink:href="#j"
         id="b" />
      <path
         fill="#333"
         d="M9 0v-24l116-142H16v-24h144v24L44-24h123V0H9"
         id="k" />
      <path
         fill="#333"
         d="M-5 72V49h209v23H-5"
         id="l" />
      <path
         fill="#333"
         d="M117-194c89-4 53 116 60 194h-32v-121c0-31-8-49-39-48C34-167 62-67 57 0H25l-1-190h30c1 10-1 24 2 32 11-22 29-35 61-36"
         id="m" />
      <path
         fill="#333"
         d="M100-194c62-1 85 37 85 99 1 63-27 99-86 99S16-35 15-95c0-66 28-99 85-99zM99-20c44 1 53-31 53-75 0-43-8-75-51-75s-53 32-53 75 10 74 51 75"
         id="n" />
      <path
         fill="#333"
         d="M59-47c-2 24 18 29 38 22v24C64 9 27 4 27-40v-127H5v-23h24l9-43h21v43h35v23H59v120"
         id="o" />
      <g
         id="c">
        <use
           transform="matrix(0.06172839506172839,0,0,0.06172839506172839,0,0)"
           xlink:href="#k"
           id="use175" />
        <use
           transform="matrix(0.06172839506172839,0,0,0.06172839506172839,11.11111111111111,0)"
           xlink:href="#l"
           id="use177" />
        <use
           transform="matrix(0.06172839506172839,0,0,0.06172839506172839,23.45679012345679,0)"
           xlink:href="#m"
           id="use179" />
        <use
           transform="matrix(0.06172839506172839,0,0,0.06172839506172839,35.80246913580247,0)"
           xlink:href="#n"
           id="use181" />
        <use
           transform="matrix(0.06172839506172839,0,0,0.06172839506172839,48.148148148148145,0)"
           xlink:href="#o"
           id="use183" />
      </g>
      <path
         fill="#333"
         d="M85-194c31 0 48 13 60 33l-1-100h32l1 261h-30c-2-10 0-23-3-31C134-8 116 4 85 4 32 4 16-35 15-94c0-66 23-100 70-100zm9 24c-40 0-46 34-46 75 0 40 6 74 45 74 42 0 51-32 51-76 0-42-9-74-50-73"
         id="p" />
      <g
         id="d">
        <use
           transform="matrix(0.06172839506172839,0,0,0.06172839506172839,0,0)"
           xlink:href="#k"
           id="use187" />
        <use
           transform="matrix(0.06172839506172839,0,0,0.06172839506172839,11.11111111111111,0)"
           xlink:href="#l"
           id="use189" />
        <use
           transform="matrix(0.06172839506172839,0,0,0.06172839506172839,23.45679012345679,0)"
           xlink:href="#i"
           id="use191" />
        <use
           transform="matrix(0.06172839506172839,0,0,0.06172839506172839,35.80246913580247,0)"
           xlink:href="#m"
           id="use193" />
        <use
           transform="matrix(0.06172839506172839,0,0,0.06172839506172839,48.148148148148145,0)"
           xlink:href="#p"
           id="use195" />
      </g>
      <path
         fill="#333"
         d="M114-163C36-179 61-72 57 0H25l-1-190h30c1 12-1 29 2 39 6-27 23-49 58-41v29"
         id="q" />
      <g
         id="e">
        <use
           transform="matrix(0.06172839506172839,0,0,0.06172839506172839,0,0)"
           xlink:href="#k"
           id="use199" />
        <use
           transform="matrix(0.06172839506172839,0,0,0.06172839506172839,11.11111111111111,0)"
           xlink:href="#l"
           id="use201" />
        <use
           transform="matrix(0.06172839506172839,0,0,0.06172839506172839,23.45679012345679,0)"
           xlink:href="#n"
           id="use203" />
        <use
           transform="matrix(0.06172839506172839,0,0,0.06172839506172839,35.80246913580247,0)"
           xlink:href="#q"
           id="use205" />
      </g>
      <g
         id="f">
        <use
           transform="matrix(0.06172839506172839,0,0,0.06172839506172839,0,0)"
           xlink:href="#k"
           id="use208" />
        <use
           transform="matrix(0.06172839506172839,0,0,0.06172839506172839,11.11111111111111,0)"
           xlink:href="#l"
           id="use210" />
        <use
           transform="matrix(0.06172839506172839,0,0,0.06172839506172839,23.45679012345679,0)"
           xlink:href="#m"
           id="use212" />
        <use
           transform="matrix(0.06172839506172839,0,0,0.06172839506172839,35.80246913580247,0)"
           xlink:href="#i"
           id="use214" />
        <use
           transform="matrix(0.06172839506172839,0,0,0.06172839506172839,48.148148148148145,0)"
           xlink:href="#m"
           id="use216" />
        <use
           transform="matrix(0.06172839506172839,0,0,0.06172839506172839,60.49382716049382,0)"
           xlink:href="#p"
           id="use218" />
      </g>
      <g
         id="g">
        <use
           transform="matrix(0.06172839506172839,0,0,0.06172839506172839,0,0)"
           xlink:href="#k"
           id="use221" />
        <use
           transform="matrix(0.06172839506172839,0,0,0.06172839506172839,11.11111111111111,0)"
           xlink:href="#l"
           id="use223" />
        <use
           transform="matrix(0.06172839506172839,0,0,0.06172839506172839,23.45679012345679,0)"
           xlink:href="#m"
           id="use225" />
        <use
           transform="matrix(0.06172839506172839,0,0,0.06172839506172839,35.80246913580247,0)"
           xlink:href="#n"
           id="use227" />
        <use
           transform="matrix(0.06172839506172839,0,0,0.06172839506172839,48.148148148148145,0)"
           xlink:href="#q"
           id="use229" />
      </g>
      <path
         fill="#333"
         d="M141 0L90-78 38 0H4l68-98-65-92h35l48 74 47-74h35l-64 92 68 98h-35"
         id="r" />
      <g
         id="h">
        <use
           transform="matrix(0.06172839506172839,0,0,0.06172839506172839,0,0)"
           xlink:href="#k"
           id="use233" />
        <use
           transform="matrix(0.06172839506172839,0,0,0.06172839506172839,11.11111111111111,0)"
           xlink:href="#l"
           id="use235" />
        <use
           transform="matrix(0.06172839506172839,0,0,0.06172839506172839,23.45679012345679,0)"
           xlink:href="#r"
           id="use237" />
        <use
           transform="matrix(0.06172839506172839,0,0,0.06172839506172839,34.5679012345679,0)"
           xlink:href="#n"
           id="use239" />
        <use
           transform="matrix(0.06172839506172839,0,0,0.06172839506172839,46.913580246913575,0)"
           xlink:href="#q"
           id="use241" />
      </g>
    </defs>
  </g>
</svg>
